<?xml version="1.0" encoding="UTF-8"?>
<svg xmlns="http://www.w3.org/2000/svg" viewBox="0 0 64 64" width="512" height="512" fill="#ff3c7d"><g id="heart_broken" data-name="heart broken"><path d="M32,18a1.00093,1.00093,0,0,1-.96191-.7251l-4-14A1.00008,1.00008,0,0,1,28,2h8a1.00008,1.00008,0,0,1,.96191,1.2749l-4,14A1.00093,1.00093,0,0,1,32,18ZM29.32617,4,32,13.35986,34.67383,4Z"/><path d="M27.05957,18.04639a.99568.99568,0,0,1-.415-.09034L15.585,12.90967a1.00013,1.00013,0,0,1-.40332-1.48438l3.98828-5.68115a1.08584,1.08584,0,0,1,.833-.42529,1.00081,1.00081,0,0,1,.82031.4497l7.07129,10.72754a.99987.99987,0,0,1-.835,1.5503Zm-9.5498-6.45655,6.80078,3.103L19.96191,8.09619Z"/><path d="M36.94043,18.04639a.99987.99987,0,0,1-.835-1.5503L43.17676,5.76855a1.00083,1.00083,0,0,1,.82031-.4497,1.03666,1.03666,0,0,1,.833.42529l3.98828,5.68115a1.00013,1.00013,0,0,1-.40332,1.48438L37.35547,17.95605A.99568.99568,0,0,1,36.94043,18.04639Zm7.09766-9.9502-4.34864,6.59668,6.80078-3.103Z"/><path d="M51.0918,23.60059a14.04335,14.04335,0,0,0-1.78907-1.4961,1.00017,1.00017,0,0,0-1.41308.25879l-4.72168,7.082A.99992.99992,0,0,0,44,31h3.02148L38.83105,42.11475l3.09766-7.74317A1.00032,1.00032,0,0,0,41,33H36.80469L44.168,21.2168a1,1,0,0,0-.68457-1.5166A14.04983,14.04983,0,0,0,32.001,22.94092,14.00016,14.00016,0,0,0,12.9082,43.39941L31.293,61.78418a.99963.99963,0,0,0,1.41406,0L51.0918,43.39941a13.99961,13.99961,0,0,0,0-19.79882ZM12.68945,37.94873a.99809.99809,0,0,1-1.26465-.63232q-.18016-.5376-.30859-1.09131a1.00027,1.00027,0,0,1,1.94922-.4502c.07031.30762.15723.61084.25586.90869A1.00027,1.00027,0,0,1,12.68945,37.94873ZM19.3457,24.1123a10.02819,10.02819,0,0,0-6.44629,8.022A1.00034,1.00034,0,0,1,11.90918,33a.9855.9855,0,0,1-.13574-.00928.99986.99986,0,0,1-.85645-1.125,12.03214,12.03214,0,0,1,7.73731-9.63037,1.00012,1.00012,0,1,1,.6914,1.877Z"/></g></svg>
