<svg clip-rule="evenodd" fill-rule="evenodd" height="1.707in" image-rendering="optimizeQuality" shape-rendering="geometricPrecision" text-rendering="geometricPrecision" viewBox="0 0 1707 1707" width="1.707in" fill="#ff6000" xmlns="http://www.w3.org/2000/svg"><g id="Layer_x0020_1"><path d="m1368 768c-216 0-389-186-372-403h-836c-83 0-174 71-158 155l125 611c16 78 65 161 158 161 32 0 64-7 68 14l43 323 263-303h-163c-23 0-23-34 0-34h681c93 0 142-83 158-161l75-366c-14 2-28 3-42 3zm-1070 60c0-63 52-115 115-115 64 0 116 52 116 115-1 63-53 115-116 115s-115-51-115-115zm759 406c-23 0-23-35 0-35h120c50 0 66-74 68-88l18-83c4-22 39-14 33 7-16 62-21 199-119 199zm-846-812c23 0 23 35 0 35-37 0-85-6-115 28-11 14-2 31 5 66 2 14-13 21-16 21-9 0-16-5-18-14-7-41-21-66 3-94 41-47 94-42 141-42zm522 521c-64 0-116-51-116-115 0-63 52-115 116-115s116 52 116 115c-2 63-54 115-116 115zm316 0c-64 0-116-51-116-115 0-63 52-115 116-115 63 0 115 52 115 115s-52 115-115 115z"/><path d="m494 828c-1-44-37-81-81-81-45 0-81 37-81 81s36 80 81 80 81-36 81-80z"/><path d="m733 747c-45 0-81 37-81 81s36 80 81 80 81-36 81-80c-1-44-37-81-81-81z"/><path d="m1049 747c-45 0-81 37-81 81s36 80 81 80 81-36 81-80-36-81-81-81z"/><path d="m1368 371c-30 0-31 45 0 45s31-45 0-45z"/><path d="m1368 452c-65 0-79-92-17-111v-86c0-23 35-23 35 0v86c28 8 46 38 39 67l74 43c19 10 3 40-18 29l-73-43c-11 9-24 15-40 15zm-280-58c0 155 126 280 280 280 155 0 281-126 281-280 0-155-126-280-281-280-154 0-280 125-280 280zm438 112c-21-12 1-41 18-29 29 20 71 29 56 52-3 6-9 9-14 9zm-158-287c-10 0-17-7-17-17v-58c0-23 35-23 35 0v58c0 10-7 17-18 17zm97 26c-9 0-24-12-14-26 20-30 29-71 52-56 21 13-2 35-23 74-3 5-9 8-15 8zm71 70c-18 0-22-24-8-32l50-29c21-11 35 19 18 29-10 5-51 32-60 32zm83 97h-58c-23 0-23-35 0-35h58c23 0 23 35 0 35zm-139 208c-15-28-45-62-23-74 8-4 19-1 23 6l29 51c6 11-2 26-15 26-5 0-11-3-14-9zm-129 25v-58c0-23 35-23 35 0v58c0 10-7 17-18 17-10 0-17-7-17-17zm-121-42c20-30 29-71 52-57 21 14-3 35-24 74-2 6-8 9-14 9-9 0-24-12-14-26zm-35-126c21-11 35 18 17 29l-59 32c-18 0-22-25-9-32zm-18-65h-57c-24 0-24-35 0-35h57c24 0 24 35 0 35zm25-97-59-32c-22-12 0-40 17-29 30 20 71 29 57 52-3 6-9 9-15 9zm71-70c-6 0-12-3-15-8-15-29-44-63-23-74 9-5 19-2 23 6l29 50c6 11-1 26-14 26z"/><path d="m1368 708c-173 0-315-140-315-314 0-173 142-315 315-315 174 0 316 142 316 315 0 174-140 314-316 314zm-338-314c0 187 152 339 338 339 187 0 339-152 339-339 0-186-150-338-339-338-169 0-310 125-334 287z"/></g></svg>