<svg id="Capa_1" enable-background="new 0 0 512 512" height="512" viewBox="0 0 512 512" width="512" xmlns="http://www.w3.org/2000/svg"><g><g><g><g><g><path d="m416.393 507.577-75.607-75.606h-73.786c-24.853 0-45-20.147-45-45v-200c0-24.853 20.147-45 45-45h200c24.853 0 45 20.147 45 45v200c0 24.853-20.147 45-45 45h-25v65c0 13.362-16.157 20.055-25.607 10.606z" fill="#ffe278"/></g></g></g></g><g><path d="m467 141.97h-100v316.213l49.393 49.393c9.449 9.449 25.607 2.757 25.607-10.607v-65h25c24.853 0 45-20.147 45-45v-200c0-24.852-20.147-44.999-45-44.999z" fill="#ffcd00"/></g><g><path d="m436.301 351.704-52.092-138.034c-.053-.139-.106-.276-.163-.413-2.816-6.841-9.41-11.257-16.806-11.257-.006 0-.014 0-.021 0-7.402.008-13.997 4.44-16.8 11.292-.047.113-.092.227-.135.341l-52.569 138.028c-2.948 7.742.938 16.408 8.679 19.356 7.746 2.952 16.408-.938 19.356-8.679l9.413-24.715h63.758l9.311 24.672c2.268 6.007 7.975 9.709 14.037 9.708 1.759 0 3.55-.312 5.293-.97 7.751-2.924 11.664-11.579 8.739-19.329zm-89.711-44.08 20.599-54.086 20.411 54.086z" fill="#5e6b75"/><g><path d="m436.301 351.704-52.092-138.034c-.053-.139-.106-.276-.163-.413-2.816-6.841-9.41-11.257-16.806-11.257-.006 0-.014 0-.021 0-.074 0-.146.007-.22.008v52.027l.189-.497 20.411 54.086h-20.599v30h31.922l9.311 24.672c2.268 6.007 7.975 9.709 14.037 9.708 1.759 0 3.55-.312 5.293-.97 7.75-2.925 11.663-11.58 8.738-19.33z" fill="#525263"/></g><g><g><g><g><path d="m70 355v-65h-25c-24.853 0-45-20.147-45-45v-200c0-24.853 20.147-45 45-45h200c24.853 0 45 20.147 45 45v200c0 24.853-20.147 45-45 45h-73.787l-75.607 75.606c-9.449 9.45-25.606 2.757-25.606-10.606z" fill="#f17ab4"/></g></g></g><g><path d="m245 0h-100v316.213l26.213-26.213h73.787c24.853 0 45-20.147 45-45v-200c0-24.853-20.147-45-45-45z" fill="#ff3c7d"/></g><path d="m225.876 203.828-10.955-10.955c9.335-13.644 14.808-30.13 14.808-47.873 0-46.869-38.131-85-85-85s-85 38.131-85 85 38.131 85 85 85c18.311 0 35.274-5.84 49.165-15.728l10.769 10.769c5.857 5.858 15.355 5.858 21.213 0 5.858-5.857 5.858-15.355 0-21.213zm-81.146-3.828c-30.327 0-55-24.673-55-55s24.673-55 55-55 55 24.673 55 55c0 9.435-2.39 18.321-6.593 26.088l-12.047-12.047c-5.857-5.857-15.355-5.857-21.213 0s-5.858 15.355 0 21.213l12.349 12.349c-8.096 4.694-17.483 7.397-27.496 7.397z" fill="#f6f9f9"/><g><path d="m225.876 203.828-10.955-10.955c9.335-13.644 14.808-30.13 14.808-47.873 0-46.779-37.985-84.846-84.73-84.993v30c30.203.147 54.73 24.757 54.73 54.993 0 9.435-2.39 18.321-6.593 26.088l-12.047-12.047c-5.857-5.857-15.355-5.857-21.213 0s-5.858 15.355 0 21.213l12.349 12.349c-8.022 4.652-17.315 7.344-27.226 7.392v29.999c18.208-.057 35.073-5.883 48.895-15.722l10.769 10.769c5.857 5.858 15.355 5.858 21.213 0 5.858-5.857 5.858-15.355 0-21.213z" fill="#f6e4e7"/></g></g></g></g></svg>