<svg height="30" viewBox="0 0 30 30" width="30" xmlns="http://www.w3.org/2000/svg" xmlns:sketch="http://www.bohemiancoding.com/sketch/ns"><g id="emotion" fill="none" fill-rule="evenodd"><g id="emotion_185-tongue_out-smile-face-avatar-emoticon-expression-mood" fill="#e5bc13" transform="translate(-225 -450)"><path d="m239.5 471.98838c-.370586-.019472-.734512-.062808-1.091217-.127941-.030851.103974-.065968.233854-.101313.384098-.11951.508003-.183009 1.018309-.16207 1.482958.051918 1.152109.57152 1.765211 1.857415 1.772451 1.287451.007249 1.804296-.605079 1.852361-1.770546.019133-.463948-.044409-.973225-.16284-1.480505-.034554-.148009-.068895-.276498-.099267-.380244-.357654.064266-.722251.106051-1.093069.123215v1.008134c0 .276142-.223858.5-.5.5s-.5-.223858-.5-.5v-1.011621zm3.066314-.353825c.031858.111746.065925.241737.099836.386991.137319.588186.211524 1.182926.188176 1.74906-.068552 1.662233-.978175 2.739904-2.857141 2.729324-1.868279-.010519-2.776637-1.082332-2.850771-2.727417-.02564-.568962.04871-1.166466.18763-1.756978.034602-.147083.069369-.278382.101797-.390786-.575931-.174328-1.130015-.404771-1.659593-.681538-.441458-.230714-.834662-.478189-1.175567-.726575-.208072-.151604-.355036-.272272-.436683-.346363-.204497-.185569-.21984-.501779-.034271-.706275.185569-.204497.501779-.21984.706275-.034271.056113.050919.175589.149018.353557.278687.302494.2204.654129.441712 1.049868.648532 1.142751.597223 2.407709.951571 3.767304.943099 1.35434.018233 2.622968-.336979 3.767972-.941804.391309-.206701.73894-.427894 1.03792-.648173.175876-.12958.293895-.227588.349254-.278406.203427-.18674.519721-.173212.706461.030215s.173212.519721-.030215.706461c-.080859.074226-.226347.195045-.43234.346814-.337468.248636-.726789.496357-1.164009.727309-.534468.282322-1.094112.516454-1.67546.692094zm-2.566314 7.365445c7.731986 0 14-6.268014 14-14s-6.268014-14-14-14-14 6.268014-14 14 6.268014 14 14 14zm-7.5-16c-.276142 0-.5.223858-.5.5s.223858.5.5.5h1.5v1.5c0 .276142.223858.5.5.5s.5-.223858.5-.5v-1.5h1.5c.276142 0 .5-.223858.5-.5s-.223858-.5-.5-.5h-1.5v-1.5c0-.276142-.223858-.5-.5-.5s-.5.223858-.5.5v1.5zm11 0c-.276142 0-.5.223858-.5.5s.223858.5.5.5h1.5v1.5c0 .276142.223858.5.5.5s.5-.223858.5-.5v-1.5h1.5c.276142 0 .5-.223858.5-.5s-.223858-.5-.5-.5h-1.5v-1.5c0-.276142-.223858-.5-.5-.5s-.5.223858-.5.5v1.5z"/></g></g></svg>