<svg id="Layer_1" enable-background="new 0 0 50 50" height="512" viewBox="0 0 50 50" width="512" fill="#309ec1" xmlns="http://www.w3.org/2000/svg"><g><path d="m48 47.7-5.7-4.1c2.5-2.9 4-6.7 3.9-10.9-.1-1.9-.5-3.8-1.2-5.5-.3 1.2-.8 2.5-1.4 3.6-2.5 4.9-6.9 8.8-12.1 10.6-5.1 1.7-8.4.9-13.9 1.2 2.8 3.9 7.4 6.6 13.2 6.6h16.8c.7-.2 1-1.1.4-1.5z"/><path d="m31.1 40.3c5-1.7 9.2-5.4 11.5-10.1 1.4-2.7 2.1-5.8 2.1-9 .1-11.5-9.5-20.7-21.1-20.2-10.4.5-18.8 9.1-19.2 19.5-.2 5.3 1.7 10.2 4.9 13.9l-7.2 5.3c-.7.5-.3 1.7.6 1.7 20-.4 22.9.8 28.4-1.1zm-11.9-11.6v-13.5c0-2.5 2.8-3.9 4.8-2.5l9.3 6.7c1.7 1.2 1.7 3.7 0 4.9l-9.3 6.7c-1.9 1.6-4.8.1-4.8-2.3z"/><path d="m32.8 20.3-9.3-6.7c-1.4-1-3.3 0-3.3 1.7v13.4c0 1.7 1.9 2.6 3.3 1.7l9.3-6.7c1.1-.9 1.1-2.6 0-3.4z"/></g></svg>