<svg xmlns="http://www.w3.org/2000/svg" version="1.1" width="25" height="25" fill="#484e52" viewBox="-5.0 -10.0 110.0 135.0">
 <path d="m50 3.125c23.227 0 42.059 18.832 42.059 42.059 0 23.227-18.832 42.059-42.059 42.059-3.9727 0-7.8125-0.55078-11.457-1.5781l-19.953 11.105c-0.28906 0.16016-0.625 0.14453-0.89453-0.046875-0.26953-0.19141-0.39844-0.5-0.34375-0.82812l3.4883-20.398c-7.9492-7.6562-12.898-18.406-12.898-30.312 0-23.227 18.832-42.059 42.059-42.059zm-4.6094 36.773h-16.125c-0.58203 0-1.0508 0.46875-1.0508 1.0508s0.46875 1.0508 1.0508 1.0508h16.125c0.58203 0 1.0508-0.46875 1.0508-1.0508s-0.47266-1.0508-1.0508-1.0508zm25.344 0h-19.84c-0.58203 0-1.0508 0.46875-1.0508 1.0508s0.46875 1.0508 1.0508 1.0508h19.84c0.58203 0 1.0508-0.46875 1.0508-1.0508s-0.46875-1.0508-1.0508-1.0508zm-12.684-8.25h-28.785c-0.58203 0-1.0508 0.46875-1.0508 1.0508s0.46875 1.0508 1.0508 1.0508h28.785c0.58203 0 1.0508-0.46875 1.0508-1.0508-0.003906-0.58203-0.47266-1.0508-1.0508-1.0508zm12.684 0h-7.5039c-0.58203 0-1.0508 0.46875-1.0508 1.0508s0.46875 1.0508 1.0508 1.0508h7.5039c0.58203 0 1.0508-0.46875 1.0508-1.0508s-0.46875-1.0508-1.0508-1.0508zm-25.344 24.969h-16.125c-0.58203 0-1.0508 0.46875-1.0508 1.0508s0.46875 1.0508 1.0508 1.0508h16.125c0.58203 0 1.0508-0.46875 1.0508-1.0508 0-0.57812-0.47266-1.0508-1.0508-1.0508zm25.344 0h-19.84c-0.58203 0-1.0508 0.46875-1.0508 1.0508s0.46875 1.0508 1.0508 1.0508h19.84c0.58203 0 1.0508-0.46875 1.0508-1.0508 0-0.57812-0.46875-1.0508-1.0508-1.0508zm-12.684-8.25h-28.785c-0.58203 0-1.0508 0.46875-1.0508 1.0508s0.46875 1.0508 1.0508 1.0508h28.785c0.58203 0 1.0508-0.46875 1.0508-1.0508-0.003906-0.58203-0.47266-1.0508-1.0508-1.0508zm12.684 0h-7.5039c-0.58203 0-1.0508 0.46875-1.0508 1.0508s0.46875 1.0508 1.0508 1.0508h7.5039c0.58203 0 1.0508-0.46875 1.0508-1.0508s-0.46875-1.0508-1.0508-1.0508z" fill-rule="evenodd"/>
</svg>