<svg xmlns="http://www.w3.org/2000/svg" data-name="Layer 1" width="26" height="26" fill="#484e52" viewBox="0 0 128 160" x="0px" y="0px"><path d="M64.1948,93.54259c-2.8245-1.36784-9.35576-4.47282-13.7327-6.02525a6.36251,6.36251,0,0,1-1.785-.97108L43.6299,82.70269V80.59626a17.87218,17.87218,0,0,0,5.37548-7.50239A6.123,6.123,0,0,0,53.355,67.2328V63.55346A3.66192,3.66192,0,0,0,51.13228,60.175V53.94464a11.9468,11.9468,0,0,0-4.78733-9.6567,16.88265,16.88265,0,0,0-10.42261-3.33741s-.18465-.02052-.53342-.02052a17.28389,17.28389,0,0,0-9.88924,3.35793,11.93423,11.93423,0,0,0-4.79418,9.6567V60.175a3.67281,3.67281,0,0,0-2.22267,3.37845V67.2328a6.12919,6.12919,0,0,0,4.35647,5.86107,17.90435,17.90435,0,0,0,5.36864,7.50239v2.10643l-5.04723,3.84357a6.41913,6.41913,0,0,1-1.77813.97108c-4.37693,1.55243-10.90819,4.65741-13.73275,6.02525a3.05064,3.05064,0,0,0-1.66868,2.19526L1.6521,118.22448a3.433,3.433,0,0,0,.766,1.70978,2.926,2.926,0,0,0,2.01066.74554H67.416a2.92608,2.92608,0,0,0,2.01066-.74554,3.60092,3.60092,0,0,0,.78653-1.70978L65.86353,95.73785A3.0507,3.0507,0,0,0,64.1948,93.54259Z"/><path d="M94.83138,7.3202A31.54792,31.54792,0,0,0,63.32376,38.83731c0,2.63291.03948,10.84534.078,18.6212l.04342,10.8079,15.03095-2.41869,2.3012,1.14565a31.11036,31.11036,0,0,0,14.05406,3.35082,31.512,31.512,0,1,0,0-63.024Zm0,55.95058a24.17546,24.17546,0,0,1-10.89629-2.60113l-4.23533-2.11812L70.483,59.96462l-.03754-7.708c-.03054-5.96622-.05817-11.37494-.05817-13.41932A24.44359,24.44359,0,1,1,94.83138,63.27078Z"/><path d="M93.30233,47.89256a3.13022,3.13022,0,1,0,3.13013,3.13035A3.13873,3.13873,0,0,0,93.30233,47.89256Z"/><path d="M99.40019,24.67127a13.58056,13.58056,0,0,0-8.66473-.83415,24.43833,24.43833,0,0,0-5.04723,1.52728l1.668,3.99665a21.16536,21.16536,0,0,1,4.15895-1.26711,9.416,9.416,0,0,1,5.93536.45483,4.04218,4.04218,0,0,1,2.20947,3.336,6.32494,6.32494,0,0,1-1.97118,4.51634c-.379.3575-.7798.69314-1.1806,1.02882l-.42241.34689c-.53068.433-1.07223.87719-1.58131,1.35384A11.24469,11.24469,0,0,0,92.555,41.3835a7.13694,7.13694,0,0,0-1.20226,3.4872h4.36487a2.99515,2.99515,0,0,1,.48742-1.15885,6.88275,6.88275,0,0,1,1.23469-1.39719c.44406-.41148.92065-.8014,1.38632-1.18045l.44416-.35744c.47655-.40087.96391-.81234,1.41885-1.24563a10.63078,10.63078,0,0,0,3.29249-7.74407A8.32489,8.32489,0,0,0,99.40019,24.67127Z"/></svg>