<svg xmlns="http://www.w3.org/2000/svg" xmlns:xlink="http://www.w3.org/1999/xlink" xmlns:serif="http://www.serif.com/" width="26" height="26" fill="#484e52" viewBox="0 0 32 40" version="1.1" xml:space="preserve" style="" x="0px" y="0px" fill-rule="evenodd" clip-rule="evenodd" stroke-linejoin="round" stroke-miterlimit="2"><g transform="matrix(1,0,0,1,-111,-301)"><path d="M140.03,329.186C140.03,327.099 138.339,325.408 136.252,325.408C136.252,325.408 136.251,325.408 136.251,325.408C134.164,325.408 132.473,327.099 132.473,329.186C132.473,329.603 132.473,329.881 132.473,329.881L140.03,329.881L140.03,329.186ZM121.587,329.186C121.587,327.099 119.896,325.408 117.81,325.408C117.809,325.408 117.809,325.408 117.808,325.408C115.722,325.408 114.03,327.099 114.03,329.186C114.03,329.603 114.03,329.881 114.03,329.881L121.587,329.881L121.587,329.186ZM130.809,329.186C130.809,327.099 129.117,325.408 127.031,325.408C127.03,325.408 127.03,325.408 127.029,325.408C124.943,325.408 123.251,327.099 123.251,329.186C123.251,329.603 123.251,329.881 123.251,329.881L130.809,329.881L130.809,329.186ZM117.812,320.329C118.975,320.329 119.919,321.273 119.919,322.436C119.919,323.599 118.975,324.543 117.812,324.543C116.649,324.543 115.705,323.599 115.705,322.436C115.705,321.273 116.649,320.329 117.812,320.329ZM127.033,320.329C128.196,320.329 129.14,321.273 129.14,322.436C129.14,323.599 128.196,324.543 127.033,324.543C125.87,324.543 124.926,323.599 124.926,322.436C124.926,321.273 125.87,320.329 127.033,320.329ZM136.254,320.329C137.417,320.329 138.361,321.273 138.361,322.436C138.361,323.599 137.417,324.543 136.254,324.543C135.091,324.543 134.147,323.599 134.147,322.436C134.147,321.273 135.091,320.329 136.254,320.329ZM137.335,317.086L137.335,308.086C137.335,307.81 137.111,307.586 136.835,307.586L131.707,307.586C131.431,307.586 131.207,307.81 131.207,308.086C131.207,308.362 131.431,308.586 131.707,308.586L136.335,308.586C136.335,308.586 136.335,317.086 136.335,317.086C136.335,317.362 136.559,317.586 136.835,317.586C137.111,317.586 137.335,317.362 137.335,317.086ZM122.537,307.586L117.165,307.586C116.889,307.586 116.665,307.81 116.665,308.086L116.665,317.086C116.665,317.362 116.889,317.586 117.165,317.586C117.441,317.586 117.665,317.362 117.665,317.086L117.665,308.586C117.665,308.586 122.537,308.586 122.537,308.586C122.813,308.586 123.037,308.362 123.037,308.086C123.037,307.81 122.813,307.586 122.537,307.586ZM132.204,316.135C132.204,313.277 129.888,310.961 127.03,310.961C127.03,310.961 127.03,310.961 127.03,310.961C124.172,310.961 121.856,313.277 121.856,316.135C121.856,316.706 121.856,317.086 121.856,317.086L132.204,317.086L132.204,316.135ZM127.034,304.006C128.626,304.006 129.919,305.299 129.919,306.892C129.919,308.484 128.626,309.777 127.034,309.777C125.442,309.777 124.149,308.484 124.149,306.892C124.149,305.299 125.442,304.006 127.034,304.006Z"/></g></svg>