<svg xmlns="http://www.w3.org/2000/svg" xmlns:xlink="http://www.w3.org/1999/xlink" version="1.1" x="0px" y="0px" viewBox="0 0 512 512"  width="30" height="30" fill="#484e52" style="enable-background:new 0 0 512 512;" xml:space="preserve"><g><path d="M79.356,142.951H331.01c3.583,0,6.5-2.917,6.5-6.5c0-3.583-2.917-6.5-6.5-6.5H79.356c-3.583,0-6.5,2.917-6.5,6.5   C72.856,140.034,75.773,142.951,79.356,142.951z"/><path d="M441.863,197.094c-17.126-14.987-38.172-26.195-61.403-33.01v-71.47c0-12.572-10.305-22.814-22.973-22.814H52.88   c-12.668,0-22.973,10.242-22.973,22.814v190.235c0,12.668,10.305,22.973,22.973,22.973h10.568l-4.876,53.873   c-0.238,2.664,1.173,5.2,3.551,6.389c0.935,0.46,1.918,0.698,2.917,0.698c1.57,0,3.123-0.571,4.344-1.665l66.034-59.295h50.323   c6.402,18.041,17.974,34.889,34.417,49.275c27.174,23.781,64.194,38.098,104.194,40.333c1.649,0.095,3.298,0.174,4.931,0.222   l42.204,44.519c1.237,1.316,2.949,2.029,4.709,2.029c0.65,0,1.316-0.111,1.95-0.301c2.378-0.745,4.106-2.79,4.471-5.248   l7.341-49.164c53.476-16.79,89.418-56.853,91.986-102.989C483.734,252.314,469.497,221.271,441.863,197.094z M180.078,267.693   c-0.473,8.495,0.243,16.898,1.955,25.129h-49.105c-0.364,0-0.678,0.15-1.025,0.207c-0.43,0.07-0.856,0.1-1.269,0.257   c-0.455,0.173-0.831,0.455-1.232,0.721c-0.268,0.175-0.572,0.261-0.818,0.48l-55.585,49.925l4.027-44.503   c0.006-0.061-0.024-0.115-0.02-0.176c0.01-0.143,0.083-0.265,0.083-0.41c0-0.495-0.177-0.934-0.283-1.399   c-0.054-0.245-0.064-0.494-0.147-0.728c-0.196-0.557-0.499-1.034-0.83-1.509c-0.149-0.216-0.261-0.446-0.434-0.642   c-0.354-0.396-0.776-0.692-1.215-0.993c-0.261-0.18-0.49-0.383-0.779-0.525c-0.44-0.216-0.922-0.308-1.411-0.42   c-0.29-0.067-0.541-0.225-0.846-0.252c-0.09-0.006-0.162,0.033-0.251,0.03c-0.106-0.005-0.196-0.061-0.304-0.061H52.88   c-5.501,0-9.972-4.471-9.972-9.972V92.614c0-5.422,4.471-9.814,9.972-9.814h304.607c5.501,0,9.972,4.392,9.972,9.814v68.165   c-9.669-2.085-19.637-3.451-29.806-4.019c-31.906-1.822-61.913,4.429-87.055,16.473H79.356c-3.583,0-6.5,2.917-6.5,6.5   s2.917,6.5,6.5,6.5H228.41c-12.065,8.601-22.199,18.846-30.127,30.25H79.356c-3.583,0-6.5,2.917-6.5,6.5s2.917,6.5,6.5,6.5h111.153   C184.556,241.34,180.832,254.15,180.078,267.693z M382.346,376.215c-2.442,0.713-4.249,2.759-4.629,5.279l-5.977,40.064   l-34.911-36.814c-1.205-1.268-2.87-1.998-4.629-2.029c-2.362-0.016-4.725-0.111-7.103-0.254   c-37.146-2.061-71.376-15.252-96.394-37.131c-24.558-21.498-37.226-48.799-35.656-76.909   c3.123-56.061,62.212-98.978,133.841-98.978c3.314,0,6.675,0.095,10.036,0.285c37.146,2.061,71.376,15.252,96.394,37.146   c24.558,21.482,37.226,48.799,35.656,76.893C466.659,325.465,432.652,361.74,382.346,376.215z"/><path d="M415.466,236.491H245.128c-3.583,0-6.5,2.917-6.5,6.5s2.917,6.5,6.5,6.5h170.338c3.583,0,6.5-2.917,6.5-6.5   S419.049,236.491,415.466,236.491z"/><path d="M415.466,267.661H245.128c-3.583,0-6.5,2.917-6.5,6.5c0,3.583,2.917,6.5,6.5,6.5h170.338c3.583,0,6.5-2.917,6.5-6.5   C421.966,270.578,419.049,267.661,415.466,267.661z"/><path d="M342.552,298.83h-97.424c-3.583,0-6.5,2.917-6.5,6.5c0,3.583,2.917,6.5,6.5,6.5h97.424c3.583,0,6.5-2.917,6.5-6.5   C349.052,301.747,346.135,298.83,342.552,298.83z"/></g></svg>