<svg xmlns="http://www.w3.org/2000/svg" data-name="Layer 1"  width="30" height="30" fill="#484e52" viewBox="0 0 100 100" x="0px" y="0px"><path d="M89.6,40.44l-6.12-4.61V19.43c0-1.66-1.35-3.01-3.01-3.01h-22.8l-5.86-4.41c-1.07-.8-2.56-.8-3.62,0l-5.86,4.41H19.53c-1.66,0-3.01,1.35-3.01,3.01v16.41l-6.12,4.61c-.25,.19-.4,.49-.4,.8h0v42.35c0,2.76,2.25,5.01,5.01,5.01H84.99c2.76,0,5.01-2.25,5.01-5.01V41.24h0c0-.32-.15-.61-.4-.8Zm-6.12-2.07l3.83,2.88-3.83,2.88v-5.76ZM49.41,13.62c.35-.26,.84-.26,1.19,0l3.72,2.8h-8.62l3.72-2.8Zm-30.87,5.81c0-.55,.43-.99,.99-.99h60.94c.55,0,.99,.43,.99,.99v26.22l-29.66,22.32c-1.06,.8-2.53,.8-3.59,0l-29.66-22.32V19.43Zm-2.02,18.94v5.76l-3.83-2.88,3.83-2.88Zm-4.5,45.23V43.27l28.11,21.14-27.63,20.79c-.3-.47-.48-1.02-.48-1.61Zm72.97,2.99H15.01c-.28,0-.55-.05-.8-.12l27.61-20.77,5.18,3.9c.89,.67,1.95,1,3.01,1s2.13-.33,3.01-1l5.18-3.9,27.61,20.77c-.26,.07-.52,.12-.8,.12Zm2.99-2.99c0,.6-.18,1.15-.48,1.61l-27.63-20.79,28.11-21.14v40.32Z"/><path d="M51.94,54.79c.13,0,.26,0,.39-.02,.85-.11,1.61-.58,2.09-1.29l16.48-24.13c.46-.67,.47-1.54,.03-2.22-.44-.68-1.23-1.03-2.04-.89l-36.33,6.36c-1.16,.2-2.07,1.03-2.38,2.17-.31,1.13,.05,2.31,.94,3.08l6.72,5.78-.58,7.44c-.09,1.21,.51,2.31,1.58,2.89,.45,.24,.94,.36,1.43,.36,.65,0,1.3-.22,1.85-.65l3.87-3.03,3.98,3.42c.55,.47,1.25,.73,1.97,.73Zm-19.5-18.48c-.44-.38-.35-.87-.31-1.01,.04-.14,.21-.61,.78-.71h0l31.97-5.62-25.85,13.02-6.6-5.68Zm8.43,15.77c-.47,.37-.94,.16-1.08,.09-.13-.07-.57-.35-.52-.95l.46-5.96,4.69,4.03-3.55,2.78Zm-.18-8.66l27.66-13.93-15.61,22.85c-.16,.24-.4,.39-.69,.42-.28,.04-.56-.04-.77-.23l-10.59-9.11Z"/></svg>