<svg id="Layer_1" enable-background="new 0 0 53 53" height="512" viewBox="0 0 53 53" width="512" xmlns="http://www.w3.org/2000/svg"><g fill="#00aeff"><circle cx="26.5" cy="26.5" r="4"/><path d="m48.0999756 24.0999756c-1.039978 0-1.9199829.6699829-2.25 1.6000366h-2.0599976l1.0300293-2.0400391c.1900024-.3999634.0299683-.8800049-.3599854-1.0800171-.4000244-.1899414-.8800049-.0299683-1.0800171.3600464l-1.3699951 2.7600098h-1.5300293l1.1600342-2.9000244c.1699829-.4099731-.0300293-.8800049-.4400024-1.039978-.4100342-.1700439-.8800049.0299683-1.0400391.4400024l-1.3999634 3.5h-5.1099854c-.1500243-1.3900146-.7000121-2.6500244-1.5300292-3.6900024l1.4700317-1.4700317 3.4599609 1.4799805c.1099854.0500488.210022.0700073.3200073.0700073.3099976 0 .5999756-.1799927.7299805-.4899902.1800537-.3999634-.0099487-.8699951-.4199829-1.0499878l-2.8699951-1.2299805 1.0800171-1.0800171 2.9199829.9799805c.0900269.0300293.1699829.0400391.2600098.0400391.3300171 0 .6400146-.210022.75-.5500488.1400146-.4199829-.0800171-.8699951-.5-1.0099487l-2.1699829-.7200317 1.4499512-1.4500122c.3200073.1500244.6700439.2399902 1.0300293.2399902.6400146 0 1.25-.25 1.7000122-.6999512.4500122-.460022.7000122-1.0599976.7000122-1.7000122s-.25-1.25-.7000122-1.7000122c-.9100342-.9000244-2.4899902-.9099731-3.4000244 0-.4500122.4500122-.7000122 1.0599976-.7000122 1.7000122 0 .3599854.0900269.7099609.2399902 1.0299683l-1.4499512 1.4500122-.7200317-2.1699829c-.1400146-.4199829-.5899658-.6400146-1.0100098-.5-.4199829.1400146-.6499634.5899658-.5099487 1.0100098l.9799805 2.9199829-1.0800171 1.0800171-1.2299805-2.8699951c-.1799927-.4100342-.6500244-.6000366-1.0499878-.4200439-.4100342.1700439-.6000366.6400146-.4200439 1.0500488l1.4800415 3.4599609-1.4700317 1.4700317c-1.039978-.8300171-2.2999878-1.3800049-3.6900024-1.5300293v-5.1099854l3.5-1.4000244c.4100342-.1599731.6099854-.6300049.4400024-1.039978-.1599731-.4099731-.6300049-.6099854-1.039978-.4400024l-2.9000244 1.1599731v-1.5299683l2.7600098-1.3699951c.3900146-.2000122.5499878-.6799927.3599854-1.0800171-.2000122-.3900146-.6799927-.5499878-1.0799561-.3599854l-2.0400391 1.0299683v-2.0599977c.9299927-.3299561 1.6000366-1.2099609 1.6000366-2.25-.0000001-1.3200073-1.0800172-2.3999634-2.4000245-2.3999634s-2.4000244 1.0799561-2.4000244 2.3999634c0 1.0400391.6700439 1.9200439 1.6000366 2.25v2.0599976l-2.0400391-1.0299683c-.3999634-.1900024-.8799438-.0300293-1.0799561.3599854-.1900024.4000244-.0300293.8800049.3599854 1.0800171l2.7600098 1.3699951v1.5299683l-2.9000244-1.1599731c-.4099731-.1699829-.8800049.0300293-1.039978.4400024-.1699829.4099731.0299683.8800049.4400024 1.039978l3.5 1.4000244v5.1099854c-1.3900146.1500243-2.6500244.7000121-3.6900024 1.5300292l-1.4700317-1.4700317 1.4800415-3.4599609c.1799927-.4100342-.0100098-.8800049-.4200439-1.0500488-.3999634-.1799927-.8699951.0100098-1.0499878.4200439l-1.2299805 2.8699951-1.0800171-1.0800171.9799805-2.9199829c.1400146-.4200439-.0899658-.8699951-.5099487-1.0100098-.4200439-.1400146-.8699951.0800171-1.0100098.5l-.7200317 2.1699829-1.4499512-1.4500122c.1499634-.3200073.2399902-.6699829.2399902-1.0299683 0-.6400146-.25-1.25-.7000122-1.7000122-.9100342-.9099731-2.4899902-.9000244-3.4000244 0-.4500122.4500122-.7000122 1.0599976-.7000122 1.7000122s.25 1.2399902.7000122 1.7000122c.4500122.4499512 1.0599976.6999512 1.7000122.6999512.3599854 0 .710022-.0899658 1.0300293-.2399902l1.4499512 1.4500122-2.1699829.7200317c-.4199829.1399536-.6400146.5899658-.5 1.0099487.1099854.3400269.4199829.5500488.75.5500488.0900269 0 .1699829-.0100098.2600098-.0400391l2.9199829-.9799805 1.0800171 1.0800171-2.8699951 1.2299805c-.4100342.1799927-.6000366.6500244-.4199829 1.0499878.1300049.3099976.4199829.4899902.7299805.4899902.1099854 0 .210022-.0199585.3200073-.0700073l3.4599609-1.4799805 1.4700317 1.4700317c-.8300171 1.039978-1.3800049 2.2999878-1.5300293 3.6900024h-5.1099854l-1.3999634-3.5c-.1600342-.4100342-.6300049-.6100464-1.0400391-.4400024-.4099731.1599731-.6099854.6300049-.4400024 1.039978l1.1600342 2.9000244h-1.5300293l-1.3699951-2.7600098c-.2000122-.3900146-.6799927-.5499878-1.0800171-.3600464-.3899536.2000122-.5499878.6800537-.3599854 1.0800171l1.0300293 2.0400391h-2.0599976c-.3300171-.9300537-1.210022-1.6000366-2.25-1.6000366-1.3200073.0000002-2.4000244 1.0800173-2.4000244 2.4000246s1.0800171 2.3999634 2.4000244 2.3999634c1.039978 0 1.9199829-.6699829 2.25-1.5999756h2.0599976l-1.0300293 2.039978c-.1900024.4000244-.0299683.8800049.3599854 1.0800171.119995.0499878.2400512.0800171.3600463.0800171.289978 0 .5699463-.1600342.7199707-.4400024l1.3699951-2.7600098h1.5300293l-1.1600342 2.9000244c-.1699829.4099731.0300293.8799438.4400024 1.039978.1000367.0399781.2000123.0599976.2999879.0599976.3200073 0 .6199951-.1900024.7400513-.5l1.3999634-3.5h5.1099854c.1500244 1.3900146.7000122 2.6500244 1.5300293 3.6900024l-1.4700317 1.4699707-3.4599609-1.4799805c-.4100342-.1799927-.8800049.0100098-1.0499878.4199829-.1800537.4000244.0099487.8699951.4199829 1.0500488l2.8699951 1.2299805-1.0800171 1.0800171-2.9199829-.9800415c-.4299927-.1399536-.8699951.0900269-1.0100098.5100098s.0800171.8699951.5 1.0100098l2.1699829.7199707-1.4599609 1.460022c-.8900146-.4000244-2.0100098-.25-2.7200317.4500122-.4500122.460022-.7000122 1.0599976-.7000122 1.7000122 0 .6399536.25 1.25.7000122 1.6999512.4500122.4500122 1.0599976.7000122 1.7000122.7000122s1.2399902-.25 1.7000122-.7000122c.4500122-.4499512.7000122-1.0599976.7000122-1.6999512 0-.3600464-.0900269-.710022-.2399902-1.0300293l1.4499512-1.4500122.7200317 2.1700439c.1099854.3299561.4199829.5499878.7600098.5499878.0799561 0 .1699829-.0200195.25-.0499878.4199829-.1400146.6499634-.5900269.5099487-1.0100098l-.9799805-2.9199829 1.0800171-1.0800171 1.2299805 2.8699951c.1300049.3099976.4299927.4899902.7399902.4899902.1000366 0 .210022-.0200195.3099976-.0700073.4100342-.1699829.6000366-.6400146.4200439-1.0499878l-1.4800415-3.460022 1.4700317-1.4699707c1.039978.8300171 2.2999878 1.3800049 3.6900024 1.5299683v5.1100464l-3.5 1.3999634c-.4100342.1600342-.6099854.6300049-.4400024 1.0400391.1599731.4099731.6300049.6099854 1.039978.4400024l2.9000244-1.1600342v1.5300293l-2.7600098 1.3699951c-.3900146.1999512-.5499878.6799927-.3599854 1.0799561.2000122.3900146.6799927.5500488 1.0799561.3600464l2.0400391-1.0300293v2.0599976c-.9299927.3300171-1.6000366 1.210022-1.6000366 2.25-.0000001 1.3200073 1.080017 2.4000244 2.4000243 2.4000244s2.4000244-1.0800171 2.4000244-2.4000244c0-1.039978-.6700439-1.9199829-1.6000366-2.25v-2.0599976l2.0400391 1.0300293c.1199951.0499878.2399902.0799561.3599854.0799561.289978 0 .5700073-.1599731.7199707-.4400024.1900024-.3999634.0300293-.8800049-.3599854-1.0799561l-2.7600098-1.3699951v-1.5300293l2.9000244 1.1600342c.0999756.039978.2000122.0599976.2999878.0599976.3200073 0 .6199951-.1900024.7399902-.5.1699829-.4100342-.0299683-.8800049-.4400024-1.0400391l-3.5-1.3999634v-5.1100464c1.3900146-.1499634 2.6500244-.6999512 3.6900024-1.5299683l1.4700317 1.4699707-1.4800415 3.460022c-.1799927.4099731.0100098.8800049.4200439 1.0499878.0999757.0499878.2099611.0700073.3099977.0700073.3099976 0 .6099854-.1799927.7399902-.4899902l1.2299805-2.8699951 1.0800171 1.0800171-.9799805 2.9199829c-.1400146.4199829.0899658.8699951.5099487 1.0100098.0800171.0299683.1700439.0499878.25.0499878.3300171 0 .6500244-.2200317.7600098-.5499878l.7200317-2.1700439 1.4499512 1.4500122c-.1499634.3200073-.2399902.6699829-.2399902 1.0300293 0 .6399536.25 1.25.7000122 1.6999512.460022.4500122 1.0599976.7000122 1.7000122.7000122s1.2399902-.25 1.7000122-.7000122c.4500122-.4499512.7000122-1.0599976.7000122-1.6999512 0-.6400146-.25-1.2399902-.7000122-1.7000122-.710022-.7000122-1.8300171-.8500366-2.7200317-.4500122l-1.4599609-1.460022 2.1699829-.7199707c.4199829-.1400146.6400146-.5900269.5-1.0100098s-.5800171-.6499634-1.0100098-.5100098l-2.9199829.9800415-1.0800171-1.0800171 2.8699951-1.2299805c.4100342-.1800537.6000366-.6500244.4199829-1.0500488-.1699829-.4099731-.6399536-.5999756-1.0499878-.4199829l-3.4599609 1.4799805-1.4700317-1.4699707c.8300171-1.039978 1.3800049-2.2999878 1.5300293-3.6900024h5.1099854l1.3999634 3.5c.1200562.3099976.4200439.5.7400513.5.0999756 0 .1999512-.0200195.2999878-.0599976.4099731-.1600342.6099854-.6300049.4400024-1.039978l-1.1600342-2.9000244h1.5300293l1.3699951 2.7600098c.1400145.2799681.4299926.4400023.7199706.4400023.1199951 0 .2400513-.0300293.3600464-.0800171.3899536-.2000122.5499878-.6799927.3599854-1.0800171l-1.0300293-2.039978h2.0599976c.3300171.9299927 1.210022 1.5999756 2.25 1.5999756 1.3200072 0 2.4000243-1.0799561 2.4000243-2.3999634s-1.0800171-2.4000244-2.4000244-2.4000244zm-21.5999756 8c-3.0900269 0-5.5999756-2.5100098-5.5999756-5.5999756 0-3.0900269 2.5099487-5.6000366 5.5999756-5.6000366s5.5999756 2.5100097 5.5999756 5.6000366c0 3.0899658-2.5099487 5.5999756-5.5999756 5.5999756z"/></g></svg>