<svg xmlns="http://www.w3.org/2000/svg" viewBox="0 0 60 75" x="0px" y="0px" height="100" weight="100"><path d="M56,4a4,4,0,0,0-4-4H4A4,4,0,0,0,0,4V40a4,4,0,0,0,4,4H30.051c-.022.332-.051.662-.051,1A15,15,0,1,0,56,34.836ZM33.028,36H2V8H54V33.028A14.922,14.922,0,0,0,33.028,36ZM4,2H52a2,2,0,0,1,2,2V6H2V4A2,2,0,0,1,4,2ZM4,42a2,2,0,0,1-2-2V38H31.743A14.9,14.9,0,0,0,30.3,42ZM45,58A13,13,0,1,1,58,45,13.015,13.015,0,0,1,45,58Z"/><path d="M37,22a3.661,3.661,0,0,0-1.528-3l-9.041-6.374a3.326,3.326,0,0,0-3.5-.243A3.619,3.619,0,0,0,21,15.626V28.374a3.619,3.619,0,0,0,1.929,3.242,3.321,3.321,0,0,0,3.5-.243L35.472,25A3.661,3.661,0,0,0,37,22Zm-2.681,1.364-9.04,6.374a1.341,1.341,0,0,1-1.429.1A1.607,1.607,0,0,1,23,28.374V15.626a1.607,1.607,0,0,1,.85-1.467,1.34,1.34,0,0,1,1.429.1l9.04,6.374a1.707,1.707,0,0,1,0,2.728Z"/><path d="M45.707,36.293a1,1,0,0,0-1.414,0l-4,4a1,1,0,0,0,1.414,1.414L44,39.414V53a1,1,0,0,0,2,0V39.414l2.293,2.293a1,1,0,0,0,1.414-1.414Z"/></svg>