<svg xmlns="http://www.w3.org/2000/svg" xmlns:xlink="http://www.w3.org/1999/xlink" version="1.1" x="0px" y="0px" viewBox="0 0 100 100" width="30" height="30" fill="#484e52" style="enable-background:new 0 0 100 100;" xml:space="preserve"><path d="M88.26,40.23c-1.1-0.48-2.32-0.26-3.19,0.55l-2.27,2.12V15.78c0-4.56-3.72-8.28-8.28-8.28H25.49  c-4.57,0-8.28,3.71-8.28,8.28v27.11l-2.28-2.13c-0.87-0.81-2.09-1.01-3.18-0.54c-1.1,0.48-1.78,1.51-1.78,2.71V90.8  c0,0.94,0.76,1.7,1.7,1.7h76.66c0.94,0,1.7-0.76,1.7-1.7V42.93C90.03,41.74,89.35,40.7,88.26,40.23z M86.63,43.97v40.78L64.79,64.36  L86.63,43.97z M48.84,77.08c0.65,0.61,1.67,0.61,2.32,0L62.3,66.69L86.3,89.1H13.7l24.01-22.41L48.84,77.08z M20.61,45.66V15.78  c0-2.69,2.19-4.88,4.88-4.88h49.02c2.69,0,4.88,2.19,4.88,4.88v30.29l-18.21,17c-0.01,0.01-0.01,0.01-0.02,0.02L50,73.51  L20.57,46.03C20.6,45.91,20.61,45.78,20.61,45.66z M35.21,64.36L13.37,84.75V43.96L35.21,64.36z M65.07,36.4  c0.53-0.3,0.85-0.87,0.85-1.47s-0.32-1.17-0.85-1.47l-12-6.93l-12-6.93c-0.53-0.3-1.17-0.3-1.7,0c-0.53,0.3-0.85,0.87-0.85,1.47  v27.72c0,0.61,0.32,1.17,0.85,1.47c0.26,0.15,0.56,0.23,0.85,0.23c0.29,0,0.59-0.08,0.85-0.23l12-6.93L65.07,36.4z M41.92,24.01  l18.9,10.91l-18.9,10.91V24.01z"/></svg>